<?xml version="1.0" encoding="UTF-8"?><svg id="a" xmlns="http://www.w3.org/2000/svg" viewBox="0 0 31.51 22.86"><defs><style>.e{fill:#0085c3;}.f{fill:#fff;}</style></defs><g id="b"><path id="c" class="e" d="m23.93,18.84h-4.58l-2.78,4.02h14.95L19.74,5.73l-2.42,3.5,6.6,9.61Zm-5.33,3.05l1.35-1.95h4.44l1.35,1.95h-7.14Zm1.29-14.22l9.78,14.22h-2.46l-8.55-12.44,1.23-1.78Z"/><path id="d" class="f" d="m13.43,22.86l5.51-8.03-2.72-3.93-5.63,8.07h-3.09L18.18,3.53l-2.38-3.53L0,22.86h13.43Zm3.58-19.39L5.65,19.93h5.74l4.8-6.93,1.28,1.83-4.85,7.04H1.86L15.81,1.72l1.2,1.75Z"/></g></svg>